<?xml version="1.0" standalone="no"?>
<!DOCTYPE svg PUBLIC "-//W3C//DTD SVG 20010904//EN"
 "http://www.w3.org/TR/2001/REC-SVG-20010904/DTD/svg10.dtd">
<svg version="1.0" xmlns="http://www.w3.org/2000/svg"
 width="500.000000pt" height="500.000000pt" viewBox="0 0 500.000000 500.000000"
 preserveAspectRatio="xMidYMid meet">

<g transform="translate(0.000000,500.000000) scale(0.100000,-0.100000)"
fill="#000000" stroke="none">
<path d="M0 2500 l0 -2500 2500 0 2500 0 0 2500 0 2500 -2500 0 -2500 0 0
-2500z m1243 299 c42 -32 49 -77 46 -278 l-4 -183 -28 -24 c-23 -20 -39 -24
-93 -24 -35 0 -64 -2 -64 -5 0 -3 13 -35 30 -72 34 -74 37 -93 15 -93 -9 0
-32 35 -58 85 l-42 86 -64 -3 -65 -3 -28 -70 c-33 -81 -52 -105 -69 -88 -9 9
-6 26 14 71 38 84 36 92 -18 92 -52 0 -99 21 -115 49 -6 12 -10 99 -10 211 0
205 6 235 54 259 12 5 117 10 247 10 214 1 228 0 252 -20z m1708 -59 c25 -14
25 -56 -1 -70 -16 -8 -24 -6 -40 10 -20 20 -19 29 3 58 11 15 13 15 38 2z
m363 -3 c24 -17 17 -58 -11 -68 -41 -15 -69 34 -37 65 19 19 25 20 48 3z
m-712 -43 c29 -15 38 -51 15 -60 -7 -2 -27 2 -43 11 -59 31 -135 9 -169 -48
-25 -41 -26 -124 -2 -160 38 -59 117 -79 171 -43 37 24 56 20 56 -9 0 -21 -9
-30 -42 -45 -131 -60 -264 29 -263 175 1 96 45 162 130 193 35 13 108 6 147
-14z m518 -39 c5 -38 7 -40 43 -43 32 -3 37 -7 37 -28 0 -21 -4 -24 -40 -24
l-40 0 0 -85 c0 -91 10 -108 62 -102 17 1 23 -3 23 -17 0 -26 -49 -39 -91 -26
-42 14 -54 46 -54 143 0 76 -2 83 -22 92 -13 6 -23 17 -23 25 0 8 10 16 23 18
18 3 22 10 22 41 0 44 6 53 35 49 15 -2 21 -12 25 -43z m-1544 -54 c53 -24 78
-74 72 -146 -9 -105 -95 -163 -179 -120 -16 9 -34 13 -39 10 -6 -3 -10 -35
-10 -71 0 -69 -15 -89 -45 -64 -13 11 -15 43 -13 204 l3 191 24 3 c13 2 27 -2
31 -9 6 -9 17 -8 46 4 50 21 61 20 110 -2z m316 0 c38 -14 69 -67 66 -111 l-3
-35 -102 -3 c-114 -3 -126 -12 -77 -57 32 -29 88 -33 122 -9 18 12 26 13 37 4
23 -19 18 -28 -25 -50 -67 -34 -145 -20 -189 35 -28 37 -35 66 -27 120 15 99
99 144 198 106z m317 8 c49 -17 61 -52 61 -174 l0 -106 -27 3 c-28 3 -28 3
-31 88 -3 111 -6 124 -38 138 -20 10 -31 10 -52 0 -35 -17 -51 -64 -51 -155
l-1 -73 -30 0 -30 0 0 140 0 140 29 0 c16 0 31 -6 34 -14 5 -12 12 -11 44 5
43 22 49 23 92 8z m1348 -5 c25 -13 37 -14 46 -5 6 6 21 11 34 11 l23 0 0
-199 c0 -122 -4 -202 -10 -206 -5 -3 -17 -2 -27 3 -13 8 -17 25 -17 73 -1 70
-3 72 -63 48 -28 -11 -40 -11 -75 1 -48 17 -76 50 -88 106 -21 91 37 173 128
183 8 0 30 -6 49 -15z m679 -3 c45 -21 77 -73 72 -119 l-3 -27 -100 -1 c-111
-2 -122 -9 -85 -57 17 -21 30 -27 61 -27 22 0 51 7 64 16 27 18 45 12 45 -15
0 -22 -59 -51 -106 -51 -47 0 -110 34 -129 70 -30 59 -15 150 33 193 41 37 92
44 148 18z m-1496 -6 c0 -19 9 -19 34 0 11 8 35 15 54 15 29 0 33 -3 30 -22
-2 -18 -11 -24 -37 -28 -55 -8 -75 -45 -80 -146 -3 -81 -4 -84 -27 -84 l-24 0
0 140 0 140 25 0 c16 0 25 -6 25 -15z m222 5 c2 -5 2 -68 0 -140 -3 -129 -3
-130 -26 -130 -13 0 -26 6 -29 13 -3 7 -5 70 -6 140 l-2 127 30 0 c16 0 31 -4
33 -10z m358 -130 l0 -140 -30 0 -30 0 0 140 0 140 30 0 30 0 0 -140z m470 34
c3 -64 10 -107 19 -118 18 -21 53 -20 82 3 22 17 25 29 29 118 5 98 5 98 32
101 23 3 28 -1 33 -30 3 -18 5 -80 3 -138 -3 -102 -4 -105 -27 -108 -14 -2
-28 3 -33 12 -7 13 -13 13 -43 -6 -44 -25 -97 -18 -131 19 -22 24 -24 34 -24
140 l0 114 28 -3 27 -3 5 -101z"/>
<path d="M755 2755 c-25 -24 -25 -26 -25 -204 l0 -180 26 -20 c25 -19 40 -21
190 -21 94 0 165 4 169 10 3 5 -9 26 -28 46 -33 36 -34 36 -70 24 -39 -15 -97
-4 -143 27 -30 19 -64 90 -64 132 0 38 29 98 62 127 98 90 268 10 268 -125 0
-43 -14 -85 -39 -114 -14 -16 -10 -22 41 -74 49 -49 58 -54 77 -44 20 11 21
18 21 211 0 194 -1 199 -22 214 -19 13 -58 16 -231 16 -207 0 -208 0 -232 -25z"/>
<path d="M906 2675 c-93 -71 -64 -204 50 -229 41 -9 84 8 84 33 0 15 5 19 16
14 39 -15 59 79 30 136 -8 15 -26 35 -40 45 -31 20 -114 21 -140 1z m109 -107
c-46 -55 -63 -63 -86 -42 -29 26 -25 47 9 39 22 -4 33 0 57 25 40 41 57 23 20
-22z"/>
<path d="M1463 2555 c-27 -19 -44 -76 -36 -116 7 -36 47 -69 83 -69 15 0 39
11 54 25 21 20 26 33 26 72 -1 51 -12 73 -47 91 -29 16 -54 15 -80 -3z"/>
<path d="M1775 2545 c-45 -44 -34 -55 50 -55 68 0 75 2 75 20 0 56 -82 79
-125 35z"/>
<path d="M3465 2546 c-82 -82 10 -226 103 -161 44 32 47 117 5 160 -33 32 -76
33 -108 1z"/>
<path d="M4125 2545 c-45 -44 -34 -55 50 -55 68 0 75 2 75 20 0 56 -82 79
-125 35z"/>
</g>
</svg>
